<svg width="280" height="340" viewBox="0 0 280 340" fill="none" xmlns="http://www.w3.org/2000/svg">
  <defs>
    <filter id="docShadow3" x="-15%" y="-10%" width="130%" height="130%">
      <feDropShadow dx="0" dy="8" stdDeviation="18" flood-color="#000" flood-opacity="0.12"></feDropShadow>
      <feDropShadow dx="0" dy="2" stdDeviation="4" flood-color="#000" flood-opacity="0.06"></feDropShadow>
    </filter>
    <linearGradient id="badgeZip" x1="0" y1="0" x2="1" y2="1">
      <stop offset="0%" stop-color="#F0A020"></stop>
      <stop offset="100%" stop-color="#D08010"></stop>
    </linearGradient>
    <linearGradient id="zipStripe" x1="0" y1="0" x2="0" y2="1">
      <stop offset="0%" stop-color="#E8E8EC"></stop>
      <stop offset="100%" stop-color="#D8D8DE"></stop>
    </linearGradient>
  </defs>

  <g filter="url(#docShadow3)">
    <rect x="10" y="10" width="260" height="320" rx="20" fill="white"></rect>
    <rect x="10" y="10" width="260" height="320" rx="20" fill="none" stroke="#EAEAED" stroke-width="1.5"></rect>
  </g>

  
  <g opacity="0.9">
    
    <rect x="122" y="28" width="36" height="210" rx="8" fill="url(#zipStripe)"></rect>
    
    <rect x="108" y="44" width="18" height="14" rx="4" fill="#D8D8E0"></rect>
    <rect x="108" y="66" width="18" height="14" rx="4" fill="#DDDDE5"></rect>
    <rect x="108" y="88" width="18" height="14" rx="4" fill="#D8D8E0"></rect>
    <rect x="108" y="110" width="18" height="14" rx="4" fill="#DDDDE5"></rect>
    <rect x="108" y="132" width="18" height="14" rx="4" fill="#D8D8E0"></rect>
    <rect x="108" y="154" width="18" height="14" rx="4" fill="#DDDDE5"></rect>
    <rect x="108" y="176" width="18" height="14" rx="4" fill="#D8D8E0"></rect>
    <rect x="108" y="198" width="18" height="14" rx="4" fill="#DDDDE5"></rect>
    
    <rect x="154" y="44" width="18" height="14" rx="4" fill="#D8D8E0"></rect>
    <rect x="154" y="66" width="18" height="14" rx="4" fill="#DDDDE5"></rect>
    <rect x="154" y="88" width="18" height="14" rx="4" fill="#D8D8E0"></rect>
    <rect x="154" y="110" width="18" height="14" rx="4" fill="#DDDDE5"></rect>
    <rect x="154" y="132" width="18" height="14" rx="4" fill="#D8D8E0"></rect>
    <rect x="154" y="154" width="18" height="14" rx="4" fill="#DDDDE5"></rect>
    <rect x="154" y="176" width="18" height="14" rx="4" fill="#D8D8E0"></rect>
    <rect x="154" y="198" width="18" height="14" rx="4" fill="#DDDDE5"></rect>
    
    <rect x="126" y="218" width="28" height="18" rx="6" fill="#C8C8D2"></rect>
    <rect x="132" y="224" width="16" height="6" rx="3" fill="#AAAAB4"></rect>
  </g>

  
  <rect x="176" y="286" width="70" height="28" rx="8" fill="url(#badgeZip)"></rect>
  <text x="211" y="305" text-anchor="middle" font-family="&#39;Courier New&#39;, monospace" font-size="13" font-weight="700" fill="white">.zip</text>
</svg>